<?xml version="1.0" standalone="no"?>
<!DOCTYPE svg PUBLIC "-//W3C//DTD SVG 20010904//EN"
 "http://www.w3.org/TR/2001/REC-SVG-20010904/DTD/svg10.dtd">
<svg version="1.0" xmlns="http://www.w3.org/2000/svg"
 width="600.000000pt" height="600.000000pt" viewBox="0 0 600.000000 600.000000"
 preserveAspectRatio="xMidYMid meet">
<metadata>
Created by potrace 1.14, written by Peter Selinger 2001-2017
</metadata>
<g transform="translate(0.000000,600.000000) scale(0.100000,-0.100000)"
fill="#000000" stroke="none">
<path d="M4828 5033 c6 -2 18 -2 25 0 6 3 1 5 -13 5 -14 0 -19 -2 -12 -5z"/>
<path d="M4680 4965 c0 -9 6 -12 15 -9 8 4 15 10 15 15 0 5 -7 9 -15 9 -8 0
-15 -7 -15 -15z"/>
<path d="M4648 4943 c7 -3 16 -2 19 1 4 3 -2 6 -13 5 -11 0 -14 -3 -6 -6z"/>
<path d="M4568 4896 c-10 -7 -15 -16 -11 -19 11 -12 23 -8 23 7 0 8 6 17 13
19 6 3 8 6 2 6 -5 0 -18 -6 -27 -13z"/>
<path d="M3108 4848 c-7 -19 2 -38 18 -38 8 0 14 10 14 25 0 26 -24 35 -32 13z"/>
<path d="M2793 4790 c-12 -5 -26 -17 -32 -27 -11 -22 0 -85 16 -90 6 -2 28 19
49 48 36 49 37 52 19 65 -21 16 -22 16 -52 4z"/>
<path d="M4410 4755 c-10 -13 -9 -15 9 -15 12 0 21 6 21 15 0 8 -4 15 -9 15
-5 0 -14 -7 -21 -15z"/>
<path d="M2647 4737 c-26 -22 -34 -56 -21 -91 8 -20 24 -21 24 -2 0 8 12 24
26 35 18 14 25 28 22 47 -4 36 -19 39 -51 11z"/>
<path d="M2907 4737 c-3 -8 -1 -20 4 -28 5 -9 9 -9 9 -2 0 6 3 18 6 27 3 9 2
16 -4 16 -5 0 -12 -6 -15 -13z"/>
<path d="M3727 4664 c-7 -8 4 -44 14 -44 12 0 12 37 0 44 -4 3 -11 3 -14 0z"/>
<path d="M3520 4650 c0 -7 11 -21 25 -32 23 -18 24 -21 11 -51 -7 -18 -11 -48
-8 -66 5 -38 43 -84 50 -62 6 17 39 51 51 51 4 0 7 -18 6 -40 -2 -33 -13 -51
-69 -114 -36 -41 -66 -79 -66 -85 0 -14 37 -15 45 -1 3 6 30 10 58 10 44 0 59
5 97 36 25 20 68 46 96 59 49 23 64 39 64 72 0 13 -8 15 -47 9 -68 -9 -113
-27 -113 -46 0 -18 -55 -74 -83 -83 -27 -10 -6 23 53 82 28 28 50 54 50 60 0
5 9 13 20 16 11 3 20 13 20 21 0 17 -21 19 -37 3 -7 -7 -12 -3 -17 15 -5 19
-13 26 -31 26 -21 0 -25 5 -25 31 0 26 -3 30 -22 27 -23 -3 -44 12 -64 48 -12
21 -64 32 -64 14z"/>
<path d="M4130 4505 c-48 -17 -46 -39 5 -43 27 -1 48 4 64 17 46 35 3 52 -69
26z"/>
<path d="M5066 4391 c-4 -39 -13 -74 -21 -81 -16 -13 -9 -43 9 -37 6 2 11 12
12 23 1 10 2 31 3 46 0 15 10 36 22 47 24 22 23 64 -2 69 -13 2 -18 -10 -23
-67z"/>
<path d="M4222 4429 c-31 -12 -27 -33 9 -46 35 -13 69 -3 69 21 0 19 -50 35
-78 25z"/>
<path d="M3860 4329 c-16 -16 -30 -31 -30 -33 0 -2 13 -9 29 -16 28 -11 35
-45 7 -34 -13 5 -96 -44 -96 -57 0 -3 9 -9 20 -12 13 -3 31 5 51 24 18 16 34
28 36 26 7 -7 -16 -57 -27 -57 -5 0 -17 -12 -27 -26 -16 -25 -16 -27 6 -43
l22 -17 -21 -27 c-12 -15 -17 -27 -11 -27 21 0 11 -21 -14 -30 -24 -9 -35 -30
-15 -30 6 0 10 5 10 11 0 6 7 8 17 5 10 -4 46 -4 80 0 53 5 62 9 65 27 2 12
17 29 35 39 l31 19 16 -32 c9 -18 15 -33 14 -33 -2 -1 -20 -9 -40 -19 -21 -9
-38 -24 -38 -32 0 -13 9 -11 45 10 30 16 54 23 70 19 30 -8 22 -34 -11 -34
-13 0 -24 -3 -24 -8 0 -4 -12 -15 -27 -24 l-28 -17 31 -1 c17 0 37 7 44 15 7
8 24 15 39 15 14 1 37 7 51 15 l25 14 -24 9 -25 9 28 18 c20 14 30 15 39 6 16
-16 24 -14 30 9 3 12 14 20 27 20 19 0 21 -4 15 -32 -9 -41 -13 -48 -28 -48
-7 0 -20 -9 -30 -20 -10 -12 -29 -20 -47 -20 -16 0 -30 -4 -30 -10 0 -5 10
-10 23 -10 12 0 18 -4 12 -8 -5 -4 -28 -27 -50 -51 l-40 -43 60 8 c56 6 59 6
46 -10 -13 -15 -13 -19 0 -27 27 -17 71 -10 95 16 15 17 34 25 55 25 l32 0
-27 -21 c-38 -30 -33 -43 14 -35 31 5 40 3 40 -8 0 -8 -9 -18 -21 -21 -31 -10
-17 -30 24 -33 45 -4 48 -20 7 -35 -47 -18 -41 -27 25 -42 l30 -7 -27 -22
c-16 -12 -28 -26 -28 -31 0 -6 25 -21 55 -35 45 -21 55 -29 55 -50 0 -14 9
-31 21 -38 14 -9 19 -21 17 -40 -3 -25 -7 -27 -58 -32 l-55 -5 3 -32 c8 -76
-23 -95 -60 -38 -13 19 -32 35 -43 37 -13 2 -20 11 -20 25 0 11 -7 33 -15 48
-15 28 -98 75 -134 75 -30 0 -86 20 -86 30 0 4 7 13 15 20 25 21 2 32 -31 15
-16 -8 -36 -15 -44 -15 -27 0 -88 49 -92 72 -2 13 -10 23 -18 23 -32 1 -79 50
-116 121 -36 69 -76 113 -132 143 -13 7 -22 18 -19 24 3 9 -22 13 -87 15 -78
3 -101 0 -160 -23 -38 -14 -80 -32 -95 -39 -46 -24 -135 -119 -170 -180 -31
-56 -33 -64 -27 -125 8 -72 18 -91 50 -91 12 0 38 -16 57 -36 49 -52 104 -81
185 -97 72 -15 81 -15 187 4 69 12 185 62 193 84 3 8 15 15 26 15 11 0 35 12
54 26 33 25 36 26 82 14 26 -8 58 -20 72 -28 40 -24 90 -81 90 -103 0 -11 10
-24 24 -30 21 -10 25 -22 36 -103 8 -50 14 -114 15 -142 1 -47 -1 -54 -27 -69
-21 -12 -28 -24 -28 -46 0 -16 -7 -45 -14 -64 -14 -33 -14 -36 10 -64 23 -28
24 -30 7 -40 -16 -10 -14 -14 20 -45 34 -30 37 -37 27 -56 -9 -16 -18 -20 -38
-16 -88 17 -96 17 -126 -9 -15 -15 -27 -28 -25 -30 2 -2 29 -20 59 -40 50 -34
55 -35 67 -19 7 9 14 21 16 27 1 5 21 3 47 -6 36 -12 51 -13 75 -3 42 17 53
66 26 112 -12 20 -21 37 -21 40 0 9 82 4 101 -6 10 -6 19 -20 19 -32 0 -12 15
-37 33 -56 21 -22 32 -44 33 -65 1 -18 5 -50 9 -71 8 -38 7 -39 -16 -33 -13 3
-35 0 -49 -8 -30 -16 -55 -5 -64 29 -8 34 -40 41 -92 21 -48 -18 -54 -33 -24
-60 11 -10 20 -24 20 -31 0 -8 14 -20 30 -29 17 -9 30 -20 30 -25 0 -5 14 -24
32 -42 80 -82 148 -102 167 -48 10 30 21 37 35 23 8 -8 108 -31 138 -32 12 -1
25 15 39 43 11 25 27 50 35 57 8 6 14 29 14 52 0 26 7 48 19 61 19 21 59 124
86 219 7 27 21 60 30 73 9 14 15 38 13 54 -1 17 5 37 17 50 11 12 21 38 22 58
6 70 2 170 -7 203 -6 19 -10 47 -10 62 0 18 -14 45 -39 75 -54 65 -61 97 -27
128 l26 25 17 -21 c33 -38 49 -26 68 49 15 63 15 71 1 99 -10 19 -12 33 -6 37
17 11 12 35 -6 28 -14 -5 -15 -1 -10 25 6 23 3 33 -11 41 -17 9 -17 11 0 38
38 59 57 111 49 133 -7 20 -9 20 -21 6 -8 -9 -20 -16 -28 -16 -11 0 -10 6 6
26 12 15 21 35 21 45 0 10 6 22 13 26 11 7 47 67 47 80 0 1 -4 3 -10 3 -5 0
-10 -7 -10 -15 0 -15 -37 -35 -66 -35 -18 0 -18 24 1 40 21 17 19 63 -3 83
-12 11 -36 17 -66 17 -39 0 -49 4 -53 19 -7 27 -58 47 -78 31 -12 -10 -21 -10
-44 0 -37 15 -92 16 -119 1 -26 -14 -92 -14 -92 -1 0 15 -52 12 -73 -4 -25
-20 -5 -29 43 -21 21 4 47 2 57 -4 16 -8 12 -12 -27 -30 l-45 -21 50 0 50 0
12 -47 c12 -52 4 -78 -26 -88 -10 -3 -26 -21 -37 -40 -22 -41 -36 -48 -61 -30
-17 13 -17 14 0 20 36 15 13 45 -34 45 -16 0 -18 3 -9 19 14 26 13 28 -10 34
-12 3 -20 14 -20 26 0 12 -4 21 -10 21 -5 0 -10 12 -10 26 0 19 -4 24 -17 20
-46 -12 -83 -17 -82 -9 0 4 4 17 8 28 6 16 2 22 -20 32 -17 7 -31 22 -35 38
-4 18 -15 28 -35 32 -32 6 -37 24 -14 43 25 21 19 43 -10 36 -84 -21 -78 -21
-72 9 3 16 3 35 0 42 -7 18 -43 16 -43 -2 0 -8 -4 -15 -10 -15 -5 0 -10 -9
-10 -19 0 -10 -7 -22 -16 -25 -13 -5 -15 -1 -12 21 3 16 7 35 9 42 3 12 -7 15
-43 17 -40 1 -52 -3 -78 -27z m120 -199 c0 -29 -5 -42 -19 -50 -28 -15 -51
-12 -51 5 0 10 -10 15 -27 15 -26 0 -26 0 -7 21 19 21 68 47 92 48 8 1 12 -13
12 -39z m162 21 c15 -2 -6 -32 -32 -46 -32 -17 -40 -12 -40 25 0 28 10 31 72
21z m768 -151 c8 -15 7 -25 -4 -42 -8 -13 -23 -46 -34 -73 -18 -44 -18 -55 -7
-82 12 -29 11 -33 -12 -55 -14 -12 -32 -40 -40 -60 -15 -37 -15 -37 -44 -22
-29 15 -36 37 -19 64 14 23 -8 42 -42 35 -24 -6 -28 -3 -28 14 0 12 6 21 14
21 8 0 27 16 41 35 25 32 26 36 13 71 -12 35 -12 37 11 53 93 64 133 75 151
41z m-580 -110 c0 -5 -7 -10 -16 -10 -8 0 -12 5 -9 10 3 6 10 10 16 10 5 0 9
-4 9 -10z m200 -79 c0 -11 -4 -22 -8 -25 -14 -9 -35 12 -29 28 9 23 37 20 37
-3z m-1033 -67 c5 -15 -28 -27 -40 -15 -5 5 -6 14 -2 21 8 13 37 9 42 -6z
m240 -76 c-3 -8 -6 -5 -6 6 -1 11 2 17 5 13 3 -3 4 -12 1 -19z m7 -181 c-16
-21 -16 -21 -9 18 4 22 9 54 10 70 6 66 9 67 12 2 3 -51 0 -73 -13 -90z m1156
143 c0 -5 -4 -10 -10 -10 -5 0 -10 5 -10 10 0 6 5 10 10 10 6 0 10 -4 10 -10z
m-220 -245 c10 -12 10 -15 -3 -15 -8 0 -17 7 -21 15 -3 8 -2 15 3 15 5 0 14
-7 21 -15z m-60 -73 c14 -16 24 -37 22 -48 -3 -24 41 -46 70 -35 18 6 25 1 43
-33 22 -40 22 -41 4 -59 -11 -10 -19 -22 -19 -28 0 -6 -10 -9 -22 -7 -16 2
-23 10 -23 24 0 20 -61 106 -113 162 -24 25 -23 52 0 52 8 0 25 -13 38 -28z
m165 -292 c3 -5 -3 -10 -15 -10 -12 0 -18 5 -15 10 3 6 10 10 15 10 5 0 12 -4
15 -10z m-115 -715 c0 -19 -4 -35 -10 -35 -11 0 -13 30 -4 54 10 25 14 19 14
-19z"/>
<path d="M4810 4350 c0 -5 5 -10 11 -10 5 0 7 5 4 10 -3 6 -8 10 -11 10 -2 0
-4 -4 -4 -10z"/>
<path d="M2261 4278 c-46 -13 -100 -55 -107 -84 -4 -14 -19 -33 -35 -45 -25
-18 -38 -19 -101 -13 -40 4 -85 13 -100 20 -19 10 -29 11 -34 3 -11 -18 20
-40 88 -63 l63 -21 -3 -62 c-2 -36 1 -63 7 -63 10 0 15 13 27 70 10 50 77 127
122 140 72 20 76 11 14 -30 -82 -52 -122 -108 -122 -169 0 -53 -15 -86 -26
-58 -8 23 -21 22 -29 -3 -7 -23 25 -98 53 -123 80 -72 254 -57 345 31 20 20
37 40 37 44 0 4 14 31 32 59 26 43 31 61 31 110 -1 53 -6 67 -44 125 -44 68
-133 145 -166 143 -10 0 -33 -5 -52 -11z m77 -155 c2 -7 -4 -16 -12 -19 -19
-7 -49 14 -40 28 8 13 46 6 52 -9z"/>
<path d="M3795 4280 c-3 -6 1 -7 9 -4 18 7 21 14 7 14 -6 0 -13 -4 -16 -10z"/>
<path d="M3460 4258 c0 -12 1 -19 3 -17 1 2 9 12 16 22 12 14 11 17 -3 17 -10
0 -16 -8 -16 -22z"/>
<path d="M4438 4244 c-27 -8 -21 -32 12 -49 35 -18 62 -19 78 -3 7 7 36 12 72
11 33 -1 62 2 65 7 4 6 -6 10 -20 10 -15 0 -34 4 -43 9 -21 11 -140 22 -164
15z"/>
<path d="M3429 4212 c-9 -9 -24 -34 -32 -54 -9 -21 -21 -38 -26 -38 -6 0 -11
-15 -11 -34 0 -69 64 -55 100 21 11 24 24 43 28 43 5 0 14 11 20 25 11 23 10
25 -14 25 -13 0 -27 7 -30 15 -8 19 -15 18 -35 -3z"/>
<path d="M4993 4210 c-3 -11 -9 -20 -14 -20 -5 0 -9 -7 -9 -15 0 -8 4 -15 9
-15 5 0 12 -8 15 -17 3 -10 4 -6 2 9 -2 21 2 28 18 30 30 4 35 48 6 48 -13 0
-24 -8 -27 -20z"/>
<path d="M4947 4136 c-3 -8 1 -17 9 -20 8 -3 14 -13 14 -22 0 -10 3 -15 6 -11
8 8 -6 67 -16 67 -4 0 -10 -6 -13 -14z"/>
<path d="M3770 4045 c-10 -13 -9 -15 9 -15 12 0 21 6 21 15 0 8 -4 15 -9 15
-5 0 -14 -7 -21 -15z"/>
<path d="M3679 3959 c-10 -19 -9 -20 13 -14 29 9 31 11 23 24 -10 17 -23 13
-36 -10z"/>
<path d="M3912 3878 c5 -15 68 -24 68 -10 0 10 -32 22 -58 22 -8 0 -12 -6 -10
-12z"/>
<path d="M3875 3821 c-9 -16 16 -22 50 -12 24 7 25 9 8 10 -12 1 -28 4 -36 7
-8 3 -18 1 -22 -5z"/>
<path d="M4195 3671 c-7 -13 5 -19 52 -27 56 -9 63 11 8 25 -53 13 -52 13 -60
2z"/>
<path d="M4058 3602 c14 -12 31 -18 47 -14 40 7 23 27 -26 30 l-44 3 23 -19z"/>
<path d="M2517 3359 c-10 -6 -17 -22 -17 -39 0 -29 2 -30 43 -30 23 0 52 3 63
6 21 6 21 6 -3 31 -32 32 -65 44 -86 32z"/>
<path d="M3760 3205 c0 -28 -3 -29 -29 -15 -10 5 -45 11 -77 14 -33 2 -70 7
-84 10 -24 6 -25 6 -3 -5 13 -7 25 -21 29 -31 4 -15 12 -19 30 -15 29 5 71
-24 60 -41 -4 -7 -22 -12 -40 -12 -74 0 -85 -57 -15 -80 33 -11 38 -17 33 -34
-3 -12 -13 -27 -22 -33 -14 -11 -13 -15 4 -34 10 -12 39 -31 64 -44 40 -20 48
-21 77 -9 39 16 74 18 130 6 48 -10 83 5 83 37 0 10 9 26 19 35 11 10 18 23
15 29 -5 14 55 57 78 57 24 0 29 28 14 85 -14 54 -41 70 -66 40 -14 -17 -56
-20 -65 -5 -3 6 -14 10 -25 10 -10 0 -20 6 -23 13 -3 9 -30 17 -68 21 -35 3
-68 11 -73 16 -20 20 -46 11 -46 -15z m40 -74 c0 -11 -49 -21 -55 -11 -2 4 -2
10 2 14 10 9 53 7 53 -3z m-69 -52 c29 -15 14 -29 -32 -29 -41 0 -51 12 -21
29 22 13 29 13 53 0z m189 -45 c0 -16 -31 -34 -60 -34 -27 0 -48 43 -31 64 10
12 17 12 51 -1 22 -9 40 -22 40 -29z m-32 -87 c2 -10 -3 -17 -12 -17 -10 0
-16 9 -16 21 0 24 23 21 28 -4z"/>
<path d="M2310 3007 c-32 -16 -38 -52 -11 -69 14 -8 19 -19 15 -34 -5 -18 0
-22 33 -28 21 -4 48 -10 59 -12 17 -5 24 1 33 26 12 35 11 38 -32 93 -31 40
-54 46 -97 24z"/>
<path d="M3562 2878 c3 -7 13 -15 22 -16 12 -3 17 1 14 10 -3 7 -13 15 -22 16
-12 3 -17 -1 -14 -10z"/>
<path d="M3730 2671 c0 -10 22 -31 32 -31 17 0 7 28 -12 33 -11 3 -20 2 -20
-2z"/>
<path d="M3777 2613 c-13 -12 -7 -31 11 -35 15 -4 18 -1 14 18 -4 24 -13 30
-25 17z"/>
<path d="M3840 2495 c0 -29 39 -50 77 -41 12 4 33 1 47 -6 25 -11 25 -12 10
-30 -16 -17 -16 -18 10 -18 24 0 26 3 20 28 -12 53 -14 67 -8 55 3 -7 14 -13
24 -13 10 0 26 -7 35 -16 14 -15 14 -19 -10 -51 -26 -32 -26 -35 -10 -59 14
-21 21 -24 48 -18 17 3 37 13 42 21 10 13 13 13 24 -1 11 -13 51 -24 51 -13 0
1 -6 20 -14 42 -15 43 -61 82 -108 92 -16 3 -28 9 -28 13 0 13 -52 31 -64 21
-7 -6 -20 -5 -36 4 -15 8 -32 10 -45 5 -12 -5 -28 -4 -36 1 -23 14 -29 11 -29
-16z"/>
<path d="M3972 2339 c2 -7 10 -15 17 -17 8 -3 12 1 9 9 -2 7 -10 15 -17 17 -8
3 -12 -1 -9 -9z"/>
<path d="M4282 2238 c3 -7 15 -15 27 -16 16 -3 22 1 19 10 -3 7 -15 15 -27 16
-16 3 -22 -1 -19 -10z"/>
<path d="M219 1836 c-2 -2 -52 -6 -111 -8 l-108 -3 0 -220 0 -220 83 -37 c45
-21 111 -45 147 -55 36 -9 67 -21 68 -25 2 -4 13 -8 25 -8 12 0 43 -7 69 -15
29 -8 50 -10 53 -4 4 5 14 5 26 -2 11 -6 28 -8 37 -4 16 6 15 7 -1 17 -17 9
-18 27 -16 251 1 234 -3 297 -22 297 -5 0 -9 6 -9 13 0 8 -25 12 -86 14 -48 1
-101 4 -119 7 -17 4 -33 4 -36 2z"/>
<path d="M5957 1347 c-21 -30 -37 -58 -37 -64 0 -6 -9 -22 -20 -36 -11 -14
-23 -40 -27 -59 -3 -18 -15 -46 -27 -63 -12 -16 -44 -75 -71 -130 -49 -98 -51
-100 -85 -100 -19 0 -45 3 -57 7 -35 11 -37 -9 -3 -27 22 -12 30 -22 30 -43 0
-16 -6 -34 -12 -40 -10 -10 -6 -19 19 -42 34 -32 34 -42 5 -88 -13 -19 -13
-30 -4 -56 10 -27 10 -39 -2 -61 -10 -19 -12 -34 -6 -45 7 -13 4 -22 -10 -35
-17 -15 -17 -20 -4 -58 8 -22 20 -47 26 -55 13 -15 11 -17 -53 -62 -20 -14
-20 -18 -9 -75 11 -54 10 -66 -9 -120 -12 -33 -24 -68 -28 -77 -5 -17 9 -18
211 -18 l216 0 0 700 c0 385 -2 700 -3 700 -2 0 -20 -24 -40 -53z"/>
<path d="M2074 522 c-26 -22 -56 -70 -46 -74 4 -2 55 -2 115 0 99 3 107 5 107
23 0 11 -11 31 -25 44 -20 20 -34 25 -77 25 -35 0 -60 -6 -74 -18z"/>
<path d="M1830 426 c0 -17 5 -26 16 -26 10 0 14 7 12 22 -5 32 -28 35 -28 4z"/>
</g>
</svg>
